<svg width="73" height="411" viewBox="0 0 73 411" fill="none" xmlns="http://www.w3.org/2000/svg">
<path d="M43 0H35V60H43V0Z" fill="#689F38"/>
<path d="M43 55H15V63H43V55Z" fill="#689F38"/>
<path d="M18 63H10V83H18V63Z" fill="#689F38"/>
<path d="M30 83H10V91H30V83Z" fill="#689F38"/>
<path d="M38 91H30V131H38V91Z" fill="#689F38"/>
<path d="M62 131H30V139H62V131Z" fill="#689F38"/>
<path d="M70 139H62V169H70V139Z" fill="#689F38"/>
<path d="M70 169H25V177H70V169Z" fill="#689F38"/>
<path d="M28 177H20V227H28V177Z" fill="#689F38"/>
<path d="M55 227H20V235H55V227Z" fill="#689F38"/>
<path d="M63 235H55V295H63V235Z" fill="#689F38"/>
<path d="M63 295H10V303H63V295Z" fill="#689F38"/>
<path d="M13 303H5V353H13V303Z" fill="#689F38"/>
<path d="M45 353H5V361H45V353Z" fill="#689F38"/>
<path d="M53 361H45V411H53V361Z" fill="#689F38"/>
<path opacity="0.6" d="M41 10H37V18H41V10Z" fill="#558B2F"/>
<path opacity="0.6" d="M41 30H37V36H41V30Z" fill="#558B2F"/>
<path opacity="0.6" d="M17 86H13V90H17V86Z" fill="#558B2F"/>
<path opacity="0.6" d="M36 110H32V118H36V110Z" fill="#558B2F"/>
<path opacity="0.6" d="M68 155H64V163H68V155Z" fill="#558B2F"/>
<path opacity="0.6" d="M26 195H22V205H26V195Z" fill="#558B2F"/>
<path opacity="0.6" d="M61 255H57V267H61V255Z" fill="#558B2F"/>
<path opacity="0.6" d="M11 320H7V330H11V320Z" fill="#558B2F"/>
<path opacity="0.6" d="M51 380H47V392H51V380Z" fill="#558B2F"/>
<path opacity="0.8" d="M9 70H3V80H9V70Z" fill="#7CB342"/>
<path opacity="0.8" d="M47 100H39V106H47V100Z" fill="#7CB342"/>
<path opacity="0.8" d="M73 145H67V153H73V145Z" fill="#7CB342"/>
<path opacity="0.8" d="M19 185H13V195H19V185Z" fill="#7CB342"/>
<path opacity="0.8" d="M71 245H63V251H71V245Z" fill="#7CB342"/>
<path opacity="0.8" d="M6 315H0V323H6V315Z" fill="#7CB342"/>
<path opacity="0.8" d="M58 370H50V376H58V370Z" fill="#7CB342"/>
</svg>
