<svg width="80" height="64" viewBox="0 0 80 64" fill="none" xmlns="http://www.w3.org/2000/svg">
<path d="M0 22C0 18.6863 2.68629 16 6 16H58C61.3137 16 64 18.6863 64 22V58C64 61.3137 61.3137 64 58 64H6C2.68629 64 0 61.3137 0 58V22Z" fill="#A0826D"/>
<path d="M32 6C32 2.68629 34.6863 0 38 0H66C69.3137 0 72 2.68629 72 6V34C72 37.3137 69.3137 40 66 40H38C34.6863 40 32 37.3137 32 34V6Z" fill="#A0826D"/>
<rect width="16" height="16" transform="translate(64 16)" fill="#8B6F5E"/>
<path d="M68 20C68 17.7909 69.7909 16 72 16C74.2091 16 76 17.7909 76 20C76 22.2091 74.2091 24 72 24C69.7909 24 68 22.2091 68 20Z" fill="white"/>
<path d="M56 12C56 9.79086 57.7909 8 60 8C62.2091 8 64 9.79086 64 12C64 14.2091 62.2091 16 60 16C57.7909 16 56 14.2091 56 12Z" fill="black"/>
<path d="M64 10C64 8.89543 64.8954 8 66 8C67.1046 8 68 8.89543 68 10C68 11.1046 67.1046 12 66 12C64.8954 12 64 11.1046 64 10Z" fill="white"/>
<rect width="12" height="12" transform="translate(36)" fill="#8B6F5E"/>
<rect width="12" height="12" transform="translate(8 52)" fill="#8B6F5E"/>
<rect width="12" height="12" transform="translate(28 52)" fill="#8B6F5E"/>
</svg>
