<svg version="1.1" viewBox="881.2251125827814 266.92270080000003 1044.7682119205297 1013.76" xmlns="http://www.w3.org/2000/svg" style="max-height: 500px" width="1044.7682119205297" height="1013.76"><path fill-rule="evenodd" fill="#f5a20f" stroke="none" d="M 1384.422 284.344 C 1384.138 285.083, 1384.374 288.570, 1384.945 292.094 C 1386.222 299.962, 1386.290 330.202, 1385.042 335 C 1380.892 350.951, 1379.682 354.969, 1376.984 361.762 C 1375.101 366.505, 1369.141 376.660, 1361.585 388 C 1354.805 398.175, 1347.988 408.750, 1346.436 411.500 C 1344.884 414.250, 1340.733 420.755, 1337.212 425.956 C 1314.223 459.907, 1306.775 492.175, 1314.171 525.783 C 1315.863 533.473, 1314.544 534.219, 1307.513 529.552 C 1296.889 522.501, 1287.796 509.016, 1282.986 493.180 C 1280.969 486.538, 1280.822 484.378, 1281.225 467.218 C 1281.466 456.923, 1282.153 447.329, 1282.751 445.898 C 1283.349 444.466, 1284.357 437.941, 1284.991 431.398 C 1285.624 424.854, 1286.550 417.700, 1287.047 415.500 C 1287.544 413.300, 1287.958 404.300, 1287.966 395.500 C 1287.989 371.305, 1284.483 356.944, 1274.196 339.103 C 1265.788 324.519, 1250.665 306.670, 1245.677 305.442 C 1239.960 304.034, 1240.332 306.827, 1248.139 323.900 C 1257.536 344.451, 1260.709 366.300, 1257.519 388.500 C 1255.348 403.611, 1250.341 423.405, 1245.250 437 C 1240.657 449.267, 1238.118 457.697, 1234.860 471.500 C 1232.856 479.990, 1232.504 484.067, 1232.525 498.500 C 1232.547 512.869, 1232.904 516.893, 1234.839 524.500 C 1238.733 539.818, 1243.156 550.421, 1249.639 559.982 C 1250.938 561.897, 1252 563.987, 1252 564.625 C 1252 569.869, 1234.878 562.546, 1219.500 550.725 C 1205.907 540.275, 1197.255 523.209, 1192.519 497.500 C 1191.809 493.650, 1190.463 486.225, 1189.527 481 C 1181.430 435.801, 1168.468 410.460, 1142.923 389.885 C 1126.193 376.410, 1115.844 370.280, 1111.927 371.523 C 1107.771 372.842, 1109.485 375.984, 1124.463 394.500 C 1139.233 412.759, 1144.017 422.837, 1148.912 446 C 1151.218 456.913, 1153.719 486.491, 1153.941 505.492 C 1154.540 556.615, 1167.369 586.460, 1200.500 613.804 C 1204.925 617.457, 1202.676 618.419, 1189.741 618.406 C 1179.864 618.396, 1177.670 618.064, 1171.662 615.673 C 1157.527 610.047, 1147.995 603.995, 1138.827 594.827 C 1131.065 587.065, 1125.777 578.744, 1113.531 555.024 C 1101.084 530.914, 1097.752 525.835, 1087.011 514.594 C 1071.879 498.759, 1056.243 488.922, 1035.222 482.012 C 1024.484 478.482, 1009.667 477.335, 1008.063 479.909 C 1006.595 482.266, 1007.862 483.707, 1015.699 488.592 C 1032.510 499.070, 1054.377 519.017, 1060.839 529.770 C 1066.817 539.717, 1073.399 553.889, 1078.594 568 C 1081.125 574.875, 1084.537 584.100, 1086.176 588.500 C 1087.815 592.900, 1089.604 598.008, 1090.153 599.851 C 1091.583 604.659, 1104.155 629.420, 1108.761 636.500 C 1118.959 652.178, 1147.117 674.366, 1162.750 679.045 C 1165.088 679.744, 1167 680.837, 1167 681.473 C 1167 684.521, 1147.935 690, 1137.333 689.999 C 1126.984 689.998, 1116.865 687.467, 1106.361 682.251 C 1094.087 676.156, 1085.057 669.286, 1069.338 654.084 C 1042.677 628.299, 1028.091 618.604, 1004.500 610.984 C 995.091 607.945, 993.643 607.756, 980 607.778 C 959.401 607.812, 944.523 610.555, 940.434 615.072 C 937.306 618.529, 940.331 620.119, 953.884 622.141 C 967.771 624.213, 975.025 626.477, 987.531 632.644 C 1004.226 640.877, 1015.617 651.120, 1034.076 674.500 C 1039.721 681.650, 1046.834 690.650, 1049.883 694.500 C 1061.687 709.406, 1082.960 729.576, 1095.074 737.348 C 1098.891 739.797, 1116.095 745.734, 1127.500 748.538 C 1134.257 750.200, 1140.337 750.998, 1146.250 750.999 C 1158.439 751.001, 1158.154 752.292, 1143.733 762.388 C 1131.670 770.833, 1121.157 774.661, 1107.500 775.583 C 1096.064 776.354, 1083.774 773.748, 1071.275 767.902 C 1027.404 747.383, 1011.127 741.561, 993.089 739.936 C 964.862 737.393, 939.426 744.311, 920.358 759.717 C 915.601 763.561, 912.892 768.697, 914.951 769.970 C 916.322 770.817, 918.028 770.559, 925 768.452 C 941.070 763.594, 963.168 762.575, 976.562 766.073 C 988.861 769.286, 996.361 772.859, 1011.155 782.552 C 1018.666 787.474, 1029.691 794.555, 1035.655 798.289 C 1041.620 802.023, 1051.225 808.051, 1057 811.684 C 1072.521 821.449, 1082.717 825.971, 1092.879 827.596 C 1097.621 828.355, 1103.750 829.529, 1106.500 830.207 C 1113.788 832.001, 1135.520 831.520, 1148.246 829.282 C 1154.878 828.116, 1159.349 827.749, 1159.923 828.323 C 1162.147 830.547, 1157.003 837.956, 1145.514 849.080 C 1134.205 860.029, 1120.725 866.321, 1105.114 867.936 C 1093.961 869.090, 1072.834 867.728, 1058 864.900 C 1027.793 859.139, 998.227 864.203, 975.594 879.014 C 964.171 886.488, 947.681 901.993, 944.619 908.138 C 942.176 913.040, 941.178 918, 942.635 918 C 942.984 918, 950.208 914.605, 958.689 910.455 C 987.667 896.276, 1002.391 893.164, 1025.426 896.352 C 1032.334 897.308, 1039.902 898.722, 1042.243 899.493 C 1068.817 908.246, 1083.150 911.777, 1110 916.187 C 1124.217 918.521, 1148.767 914.758, 1165.608 907.663 C 1171.695 905.098, 1183.777 898.561, 1185.450 896.928 C 1189.306 893.162, 1190.187 899.901, 1186.925 908.213 C 1183.590 916.712, 1172.655 932.250, 1165.401 938.796 C 1154.893 948.281, 1137.244 956.619, 1119.500 960.484 C 1108.047 962.978, 1086.392 968.875, 1081.268 970.894 C 1066.374 976.765, 1044.429 989.261, 1036.867 996.177 C 1020.695 1010.967, 1008.067 1034.544, 1007.868 1050.320 C 1007.834 1052.971, 1008.102 1055.436, 1008.463 1055.797 C 1008.824 1056.158, 1011.442 1053.764, 1014.281 1050.476 C 1023.908 1039.328, 1034.477 1028.773, 1040.961 1023.831 C 1053.880 1013.984, 1074.477 1005.617, 1092.250 1002.996 C 1095.963 1002.448, 1101.813 1001.587, 1105.250 1001.083 C 1108.688 1000.578, 1118.025 999.874, 1126 999.517 C 1147.292 998.564, 1162.184 995.925, 1177 990.479 C 1202.021 981.282, 1217.902 969.834, 1233.810 949.526 C 1237.354 945.002, 1238.198 947.528, 1237.642 961 C 1237.050 975.358, 1235.386 981.748, 1228.805 994.934 C 1224.423 1003.714, 1222.098 1006.931, 1214.137 1015.225 C 1204.518 1025.247, 1191.045 1035.552, 1178.420 1042.545 C 1153.384 1056.411, 1134.515 1072.443, 1123.308 1089.372 C 1110.593 1108.578, 1105.726 1123.489, 1105.694 1143.329 C 1105.672 1156.850, 1106.325 1160.272, 1108.835 1159.803 C 1110.527 1159.487, 1112.066 1156.738, 1118.493 1142.546 C 1123.198 1132.156, 1130.781 1119.867, 1137.551 1111.660 C 1146.566 1100.730, 1165.859 1088.553, 1191.500 1077.609 C 1217.377 1066.563, 1230.122 1060.563, 1238.297 1055.577 C 1256.945 1044.201, 1262.995 1038.857, 1275.635 1022.597 C 1284.367 1011.364, 1288.566 1004, 1293.507 991.250 C 1297.896 979.923, 1298.801 980.940, 1302.947 1001.858 C 1306.964 1022.127, 1304.720 1037.814, 1295.433 1054.388 C 1290.684 1062.861, 1281.146 1077.115, 1276.287 1083 C 1275.606 1083.825, 1273.800 1086.139, 1272.274 1088.142 C 1270.748 1090.145, 1265.374 1096.478, 1260.332 1102.217 C 1237.625 1128.057, 1228.362 1146.989, 1224.963 1174.500 C 1222.812 1191.904, 1226.476 1218.567, 1231.741 1223.832 C 1235.014 1227.105, 1236.010 1225.800, 1237.065 1216.851 C 1240.303 1189.393, 1244.465 1176.799, 1256.263 1158.761 C 1266.161 1143.627, 1277.903 1131.616, 1306.055 1107.830 C 1334.506 1083.792, 1351.752 1060.267, 1358.714 1036 C 1360.583 1029.487, 1361.269 1024.228, 1361.651 1013.500 C 1361.925 1005.800, 1362.323 998.945, 1362.536 998.267 C 1363.262 995.961, 1365.788 998.122, 1370.302 1004.911 C 1383.287 1024.438, 1387.441 1045.478, 1382.896 1068.700 C 1381.815 1074.228, 1373.534 1096.038, 1369.480 1104.040 C 1364.758 1113.357, 1353.808 1142.640, 1351.172 1153 C 1348.700 1162.714, 1348.501 1165.036, 1348.517 1184 C 1348.532 1200.878, 1348.855 1205.560, 1350.346 1210.500 C 1355.612 1227.942, 1365.773 1248.289, 1370.950 1251.758 C 1376.312 1255.352, 1377.545 1254.512, 1377.250 1247.464 C 1377.113 1244.184, 1375.990 1237, 1374.754 1231.500 C 1372.936 1223.409, 1372.506 1218.445, 1372.503 1205.500 C 1372.500 1191.115, 1372.784 1188.440, 1375.310 1179 C 1378.792 1165.985, 1385.935 1151.287, 1398.634 1131 C 1419.782 1097.216, 1427.822 1081.838, 1433.662 1064 C 1438.061 1050.564, 1439.381 1040.562, 1438.740 1025.536 C 1438.309 1015.450, 1437.637 1011.587, 1434.591 1001.690 C 1429.375 984.739, 1430.998 983.741, 1443.340 996.310 C 1452.604 1005.743, 1459.713 1016.880, 1464.348 1029.219 L 1467.458 1037.500 1467.384 1066 C 1467.340 1082.689, 1466.832 1097.194, 1466.159 1101 C 1464.068 1112.814, 1462.879 1137.486, 1463.950 1146.822 C 1466.268 1167.026, 1469.171 1177.458, 1476.657 1192.487 C 1485.441 1210.123, 1499.792 1224.280, 1512.206 1227.554 C 1517.621 1228.983, 1519 1228.766, 1519 1226.485 C 1519 1224.902, 1514.012 1216.103, 1510.401 1211.317 C 1509.081 1209.566, 1508 1207.801, 1508 1207.395 C 1508 1206.990, 1507.361 1205.947, 1506.581 1205.079 C 1503.302 1201.432, 1496.890 1184.259, 1495.350 1175 C 1491.384 1151.159, 1492.878 1138.396, 1503.543 1105 C 1514.231 1071.531, 1518.538 1048.933, 1517.742 1030.500 C 1516.874 1010.423, 1513.259 995.524, 1505.247 979 C 1501.249 970.755, 1499.310 968.165, 1490.570 959.393 C 1480.143 948.928, 1471.764 943.207, 1460.393 938.790 C 1454.972 936.683, 1452.939 936.500, 1435 936.500 C 1423.735 936.500, 1412.966 937.010, 1409.500 937.708 C 1396.348 940.357, 1375.390 941.437, 1361.608 940.176 C 1347.454 938.882, 1332.767 936.163, 1325.224 933.441 C 1309.820 927.882, 1300.815 923.716, 1289 916.684 C 1273.756 907.611, 1248.383 883.623, 1238.156 868.616 C 1226.320 851.247, 1214.994 825.501, 1211.490 808 C 1210.664 803.875, 1209.434 798.025, 1208.757 795 C 1207.940 791.352, 1207.536 780.242, 1207.556 762 C 1207.583 737.675, 1207.832 733.403, 1209.712 725 C 1216.092 696.485, 1228.442 671.542, 1248.182 647.302 C 1261.362 631.117, 1284.489 612.807, 1303.309 603.657 C 1318.959 596.049, 1320.417 595.451, 1330.520 592.510 C 1346.304 587.914, 1357.224 586.761, 1379.500 587.336 C 1405.854 588.016, 1413.614 589.581, 1437.500 599.032 C 1452.254 604.870, 1453.470 605.208, 1461.588 605.736 C 1471.027 606.350, 1475.871 605.101, 1481 600.733 C 1486.236 596.273, 1488.972 589.822, 1488.987 581.898 C 1489.003 573.954, 1487.193 570.757, 1479 564.255 C 1475.975 561.854, 1470.865 557.777, 1467.644 555.195 C 1460.693 549.621, 1454.877 541.862, 1451.847 534.119 C 1449.891 529.120, 1449.662 526.781, 1449.774 512.920 C 1449.914 495.737, 1450.780 492.065, 1457.739 479.143 C 1465.680 464.397, 1471.806 456.600, 1493.995 433 C 1507.738 418.383, 1509.343 416.481, 1514.669 408.500 C 1526.128 391.327, 1532.491 374.783, 1535.059 355.480 C 1536.674 343.346, 1535.881 322.561, 1533.639 318.250 C 1530.584 312.376, 1526.858 315.201, 1525.044 324.768 C 1523.752 331.579, 1518.451 347.166, 1515.283 353.467 C 1511.198 361.593, 1504.871 372.267, 1502.223 375.500 C 1492.363 387.539, 1475.540 402.695, 1459.500 413.989 C 1435.643 430.788, 1427.886 437.426, 1418.478 449.096 C 1399.253 472.943, 1389 497.940, 1389 520.962 C 1389 524.086, 1388.376 526.549, 1387.223 527.972 L 1385.447 530.166 1381.822 524.833 C 1372.543 511.181, 1368.844 501.134, 1368.241 487.948 C 1367.480 471.279, 1369.775 458.181, 1375.767 445 C 1376.892 442.525, 1379.480 436.467, 1381.518 431.537 C 1383.556 426.607, 1386.918 418.957, 1388.990 414.537 C 1395.455 400.741, 1396.744 397.641, 1399.901 388.293 C 1405.212 372.568, 1407.160 362.498, 1407.695 348 C 1408 339.757, 1407.767 332.845, 1407.097 330.250 C 1406.494 327.913, 1405.527 324.087, 1404.949 321.750 C 1403.180 314.591, 1393.139 290.107, 1389.982 285.250 C 1388.364 282.762, 1385.225 282.250, 1384.422 284.344 M 1561.500 420.222 C 1556.456 422.010, 1553.330 424.767, 1551.194 429.310 C 1549.079 433.810, 1544.587 457.274, 1543.500 469.500 C 1543.158 473.350, 1542.248 481, 1541.478 486.500 C 1540.707 492, 1539.137 505.725, 1537.989 517 C 1536.840 528.275, 1535.257 542.225, 1534.471 548 C 1533.685 553.775, 1532.595 565.475, 1532.050 574 C 1531.504 582.525, 1530.592 592.875, 1530.023 597 C 1529.060 603.982, 1528.175 614.079, 1524.455 660.500 C 1523.661 670.400, 1522.804 679.048, 1522.550 679.718 C 1522.296 680.388, 1521.604 687.588, 1521.013 695.718 C 1520.422 703.848, 1519.508 712.975, 1518.982 716 C 1518.456 719.025, 1517.567 728.925, 1517.007 738 C 1516.448 747.075, 1515.517 758.015, 1514.939 762.311 C 1514.361 766.607, 1513.326 779.801, 1512.639 791.631 C 1511.671 808.293, 1511.064 813.344, 1509.945 814.041 C 1507.776 815.391, 1507.213 812.226, 1507.100 798.052 C 1507.045 791.205, 1506.546 781.980, 1505.992 777.552 C 1505.437 773.123, 1504.308 760.050, 1503.481 748.500 C 1500.854 711.764, 1495.326 680.395, 1489.478 669.025 C 1486.867 663.948, 1482.748 659.192, 1478.625 656.490 C 1472.512 652.484, 1460.182 654.858, 1454.291 661.174 C 1448.363 667.529, 1442.248 686.603, 1439.119 708.500 C 1438.490 712.900, 1437.337 720.775, 1436.557 726 C 1434.597 739.124, 1432.248 758.928, 1431.517 768.500 C 1430.562 780.995, 1428.406 787.107, 1426.607 782.418 C 1426.273 781.548, 1426 779.576, 1426 778.035 C 1426 773.737, 1418.584 757.958, 1414.582 753.740 C 1412.620 751.673, 1408.480 748.860, 1405.383 747.490 C 1400.070 745.141, 1398.753 745.001, 1382.126 745.016 C 1365.710 745.032, 1364.227 745.187, 1360.530 747.282 C 1358.346 748.519, 1355.495 751.099, 1354.194 753.015 C 1352.138 756.046, 1351.875 757.439, 1352.182 763.699 C 1352.557 771.376, 1354.050 774.455, 1359.295 778.371 C 1361.558 780.060, 1364.098 780.453, 1375.882 780.933 C 1387.407 781.403, 1390.141 781.812, 1391.802 783.318 C 1392.906 784.318, 1395.047 789.043, 1396.561 793.818 C 1401.185 808.401, 1407.267 820.185, 1412.586 824.867 C 1421.237 832.482, 1432.921 833.162, 1443.511 826.667 C 1454.611 819.858, 1461.780 796.914, 1465.371 756.704 C 1466.098 748.566, 1467.099 741.509, 1467.596 741.021 C 1468.123 740.504, 1469.196 740.649, 1470.169 741.368 C 1471.542 742.383, 1471.914 744.984, 1472.266 756.051 C 1473.051 780.685, 1475.021 811.381, 1476.467 821.500 C 1477.253 827, 1478.152 833.975, 1478.466 837 C 1479.021 842.359, 1479.725 847.129, 1484.064 874.956 C 1488.638 904.282, 1495.637 916, 1508.583 916 C 1511.491 916, 1515.137 915.522, 1516.685 914.939 C 1520.409 913.535, 1525.745 908.351, 1527.945 904 C 1530.658 898.634, 1533.940 886.852, 1534.972 878.774 C 1535.483 874.773, 1536.563 867.450, 1537.373 862.500 C 1540.175 845.379, 1541.918 832.467, 1542.504 824.500 C 1542.827 820.100, 1543.511 814.250, 1544.023 811.500 C 1544.536 808.750, 1545.423 800.875, 1545.995 794 C 1546.567 787.125, 1547.499 779.025, 1548.067 776 C 1548.634 772.975, 1549.759 761.725, 1550.567 751 C 1551.375 740.275, 1552.466 727.457, 1552.993 722.516 C 1553.519 717.574, 1554.389 707.899, 1554.927 701.016 C 1555.465 694.132, 1556.591 679.725, 1557.430 669 C 1558.268 658.275, 1559.454 644.916, 1560.065 639.312 C 1560.675 633.709, 1561.494 623.262, 1561.886 616.097 C 1562.277 608.932, 1562.874 602.793, 1563.213 602.454 C 1563.551 602.115, 1564.748 602.330, 1565.872 602.931 C 1567.790 603.958, 1567.940 605.140, 1568.324 622.262 C 1568.549 632.293, 1569.237 652.200, 1569.854 666.500 C 1571.296 699.936, 1572.722 734.687, 1574.019 768 C 1574.586 782.575, 1575.704 807.325, 1576.504 823 C 1577.304 838.675, 1578.208 859.375, 1578.512 869 C 1578.816 878.625, 1579.486 891.450, 1579.999 897.500 C 1580.513 903.550, 1581.426 919.975, 1582.027 934 C 1582.628 948.025, 1583.527 961.750, 1584.026 964.500 C 1584.524 967.250, 1585.415 977.375, 1586.005 987 C 1586.595 996.625, 1587.505 1007.200, 1588.028 1010.500 C 1588.551 1013.800, 1590.134 1025.725, 1591.547 1037 C 1592.959 1048.275, 1594.738 1060.200, 1595.499 1063.500 C 1596.260 1066.800, 1597.345 1071.817, 1597.909 1074.648 C 1600.391 1087.101, 1606.826 1096.288, 1613.903 1097.484 C 1619.755 1098.472, 1627.018 1097.117, 1631.278 1094.240 C 1635.798 1091.188, 1641.140 1080.704, 1642.864 1071.500 C 1643.482 1068.200, 1644.411 1063.448, 1644.928 1060.940 C 1645.445 1058.433, 1646.161 1051.233, 1646.520 1044.940 C 1646.878 1038.648, 1647.560 1032.150, 1648.035 1030.500 C 1648.510 1028.850, 1649.371 1021.425, 1649.948 1014 C 1650.525 1006.575, 1651.431 997.800, 1651.960 994.500 C 1652.962 988.259, 1655.462 961.593, 1657.070 940 C 1657.581 933.125, 1658.478 921.650, 1659.062 914.500 C 1659.646 907.350, 1660.508 894.525, 1660.978 886 C 1662.098 865.698, 1664.095 840.399, 1664.922 836.026 C 1665.465 833.154, 1666.170 832.383, 1668.992 831.573 C 1674.642 829.953, 1679.435 824.248, 1681.749 816.390 C 1684.104 808.393, 1687.679 782.239, 1688.978 763.500 C 1689.473 756.350, 1690.345 745.100, 1690.915 738.500 C 1691.484 731.900, 1692.487 715.793, 1693.142 702.706 C 1693.798 689.619, 1694.752 678.653, 1695.263 678.338 C 1695.774 678.022, 1696.897 678.468, 1697.758 679.330 C 1699.081 680.652, 1699.528 687.096, 1700.629 720.698 C 1701.347 742.589, 1702.383 769.500, 1702.932 780.500 C 1703.481 791.500, 1704.413 810.175, 1705.003 822 C 1705.593 833.825, 1706.487 845.975, 1706.991 849 C 1707.494 852.025, 1708.394 862.375, 1708.990 872 C 1709.587 881.625, 1710.489 891.750, 1710.994 894.500 C 1711.500 897.250, 1712.389 903.643, 1712.972 908.706 C 1714.081 918.355, 1718.717 934.196, 1721.963 939.429 C 1723.011 941.118, 1725.495 944.073, 1727.484 945.995 C 1730.899 949.295, 1731.542 949.510, 1739.014 949.849 C 1745.766 950.156, 1747.439 949.892, 1750.421 948.049 C 1759.942 942.164, 1766.167 928.063, 1768.983 906 C 1769.579 901.325, 1770.509 895.250, 1771.049 892.500 C 1771.920 888.066, 1773.172 873.495, 1775.990 835 C 1777.558 813.595, 1779.180 782.605, 1779.956 759.219 C 1780.382 746.414, 1781.026 735.641, 1781.389 735.278 C 1781.751 734.916, 1782.753 735.324, 1783.615 736.186 C 1784.726 737.297, 1785.441 741.065, 1786.070 749.127 C 1786.558 755.382, 1787.395 763.425, 1787.929 767 C 1788.463 770.575, 1789.184 776.200, 1789.531 779.500 C 1791.064 794.091, 1797.151 814.096, 1802.531 822.226 C 1807.703 830.042, 1819.760 832.952, 1830.500 828.978 C 1842.049 824.704, 1849.317 813.800, 1854.471 793.014 C 1855.356 789.446, 1856.736 785.526, 1857.537 784.303 C 1859.334 781.561, 1865.596 779.764, 1870.688 780.529 C 1872.784 780.844, 1879.072 780.699, 1884.660 780.206 C 1893.906 779.392, 1895.181 779.025, 1898.842 776.125 C 1903.608 772.350, 1905.485 767.552, 1904.631 761.324 C 1903.844 755.579, 1900.288 751.031, 1893.754 747.411 L 1888.500 744.500 1869 744.505 C 1850.633 744.510, 1849.194 744.648, 1844.243 746.881 C 1835.357 750.889, 1832 755.898, 1827.130 772.422 C 1822.865 786.890, 1822.429 786.203, 1819.572 760.500 C 1818.105 747.308, 1816.370 734.926, 1813.897 720 C 1813.304 716.425, 1812.213 709.450, 1811.471 704.500 C 1807.390 677.271, 1802.326 665.210, 1791.634 657.250 C 1785.666 652.807, 1773.213 654.806, 1767.321 661.153 C 1766.122 662.444, 1763.088 667.775, 1760.578 673 C 1755.780 682.990, 1753.679 691.730, 1752.528 706.500 C 1752.185 710.900, 1751.477 717.875, 1750.955 722 C 1747.817 746.785, 1745.255 778.091, 1744.433 801.695 C 1743.849 818.470, 1743.470 821.989, 1742.198 822.478 C 1741.355 822.801, 1740.311 822.711, 1739.878 822.278 C 1739.446 821.846, 1738.835 811.818, 1738.522 799.996 C 1738.208 788.173, 1737.484 774, 1736.912 768.500 C 1736.340 763, 1735.210 739.825, 1734.400 717 C 1732.738 670.130, 1731.459 643.578, 1730.090 627.500 C 1728.078 603.866, 1726.028 584.810, 1725.115 581.239 C 1724.589 579.183, 1723.848 574.575, 1723.467 571 C 1722.564 562.504, 1718.798 550.646, 1715.211 545 C 1707.986 533.630, 1694.547 530.726, 1686.482 538.791 C 1681.019 544.254, 1675.788 557.793, 1673.967 571.180 C 1673.420 575.206, 1672.093 585.925, 1671.019 595 C 1669.946 604.075, 1668.823 612.872, 1668.526 614.549 C 1668.228 616.226, 1667.546 623.426, 1667.010 630.549 C 1666.474 637.672, 1665.598 646.650, 1665.063 650.500 C 1663.942 658.563, 1662.623 671.459, 1660.842 691.772 C 1659.440 707.765, 1659.007 709.202, 1656.311 706.822 C 1650.005 701.254, 1639.642 705.433, 1635.566 715.187 C 1632.572 722.352, 1629.196 743.188, 1628.548 758.500 C 1628.199 766.750, 1627.284 780.475, 1626.515 789 C 1625.746 797.525, 1624.851 815.750, 1624.525 829.500 C 1624.200 843.250, 1623.506 858.550, 1622.984 863.500 C 1622.463 868.450, 1622.024 877.675, 1622.009 884 C 1621.970 900.737, 1620.140 928.260, 1618.990 929.410 C 1618.365 930.035, 1617.662 930.050, 1617.084 929.450 C 1616.264 928.599, 1614.943 900.935, 1611.952 822 C 1611.421 807.975, 1610.535 792.450, 1609.984 787.500 C 1609.432 782.550, 1608.548 762.300, 1608.018 742.500 C 1607.488 722.700, 1606.576 700.200, 1605.991 692.500 C 1605.406 684.800, 1604.261 660.275, 1603.446 638 C 1602.632 615.725, 1601.534 591.425, 1601.006 584 C 1600.479 576.575, 1599.572 563.075, 1598.992 554 C 1597.369 528.635, 1596.122 512.372, 1595.042 502.500 C 1594.500 497.550, 1593.591 488.100, 1593.021 481.500 C 1592.450 474.900, 1591.484 466.125, 1590.872 462 C 1590.261 457.875, 1589.418 451.949, 1588.999 448.832 C 1587.763 439.637, 1583.548 429.952, 1578.737 425.254 C 1572.534 419.196, 1568.069 417.893, 1561.500 420.222"/></svg>