<svg xmlns="http://www.w3.org/2000/svg" width="2816" height="1536" viewBox="0 0 2816 1536" version="1.1"><path d="M 1278.828 127.506 C 1278.518 127.815, 1275.516 128.511, 1272.157 129.052 C 1262.832 130.554, 1244.266 136.680, 1237 140.653 C 1221.035 149.382, 1203.591 165.106, 1194.397 179.054 C 1189.351 186.710, 1182.381 201.343, 1178.703 212 C 1175.182 222.203, 1163.635 259.978, 1158.528 278 C 1157.047 283.225, 1153.656 294.475, 1150.991 303 C 1148.326 311.525, 1145.189 321.875, 1144.020 326 C 1142.850 330.125, 1140.387 338.225, 1138.547 344 C 1134.905 355.430, 1130.715 369.337, 1128.302 378 C 1125.076 389.588, 1124.027 393.052, 1118.165 411.500 C 1114.844 421.950, 1111.623 432.525, 1111.007 435 C 1109.648 440.461, 1105.253 454.737, 1104.081 457.500 C 1103.615 458.600, 1101.850 464.225, 1100.161 470 C 1098.471 475.775, 1095.007 487.250, 1092.463 495.500 C 1089.919 503.750, 1085.593 518.150, 1082.849 527.500 C 1080.106 536.850, 1075.908 550.800, 1073.520 558.500 C 1071.133 566.200, 1067.974 576.775, 1066.499 582 C 1065.024 587.225, 1062.776 594.875, 1061.502 599 C 1060.229 603.125, 1056.913 614.150, 1054.135 623.500 C 1051.357 632.850, 1046.094 650.400, 1042.441 662.500 C 1038.788 674.600, 1034.264 689.900, 1032.389 696.500 C 1030.514 703.100, 1026.026 718.175, 1022.414 730 C 1005.655 784.874, 991.420 832.433, 984.892 855.361 C 982.722 862.984, 978.304 877.834, 975.074 888.361 C 971.844 898.887, 967.526 913.350, 965.478 920.500 C 963.430 927.650, 961.167 935.075, 960.449 937 C 959.731 938.925, 957.121 947.475, 954.649 956 C 944.468 991.110, 934.519 1024.747, 928.324 1045 C 924.707 1056.825, 920.251 1071.675, 918.420 1078 C 914.573 1091.294, 898.315 1146.291, 891.519 1169 C 886.153 1186.932, 874.043 1227.965, 867.909 1249 C 865.583 1256.975, 862.618 1267.070, 861.320 1271.433 C 855.861 1289.782, 855.923 1315.236, 861.475 1334.500 C 864.691 1345.659, 871.991 1361.407, 877.930 1370 C 883.100 1377.480, 897.949 1392.675, 906 1398.724 C 913.380 1404.269, 929.669 1412.348, 939.500 1415.339 C 957.213 1420.729, 930.271 1420.420, 1402 1420.651 C 1665.286 1420.780, 1844.895 1420.495, 1851.500 1419.938 C 1872.791 1418.141, 1884.875 1414.247, 1902 1403.665 C 1933.017 1384.499, 1952.942 1354.445, 1958.056 1319.114 C 1959.875 1306.548, 1958.790 1285.721, 1955.733 1274.500 C 1951.817 1260.131, 1936.209 1206.633, 1932.558 1195.068 C 1930.723 1189.256, 1928.008 1180.225, 1926.526 1175 C 1925.043 1169.775, 1923.001 1162.800, 1921.988 1159.500 C 1920.975 1156.200, 1917.637 1145.175, 1914.570 1135 C 1911.502 1124.825, 1906.979 1109.975, 1904.519 1102 C 1902.058 1094.025, 1897.612 1078.950, 1894.638 1068.500 C 1889.597 1050.784, 1885.452 1036.951, 1875.913 1006 C 1873.794 999.125, 1869.094 983.150, 1865.469 970.500 C 1858.389 945.794, 1841.748 890.229, 1837.018 875.500 C 1835.428 870.550, 1832.937 862, 1831.483 856.500 C 1830.028 851, 1827.563 842.450, 1826.006 837.500 C 1824.449 832.550, 1821.064 821.525, 1818.483 813 C 1815.903 804.475, 1811.996 791.650, 1809.801 784.500 C 1803.597 764.290, 1803.274 763.189, 1800.118 751.500 C 1798.484 745.450, 1795.282 734.650, 1793.003 727.500 C 1790.724 720.350, 1786.896 707.750, 1784.497 699.500 C 1782.098 691.250, 1777.842 677.075, 1775.041 668 C 1772.239 658.925, 1768.553 646.438, 1766.849 640.250 C 1765.145 634.063, 1763.346 629, 1762.851 629 C 1762.356 629, 1761.542 630.074, 1761.043 631.386 C 1760.246 633.484, 1755.651 641.005, 1744.478 658.500 C 1742.722 661.250, 1738.447 668.225, 1734.978 674 C 1726.006 688.934, 1714.385 706.905, 1708.094 715.570 L 1705.140 719.640 1709.091 731.570 C 1711.263 738.132, 1715.521 751.825, 1718.551 762 C 1721.582 772.175, 1724.968 783.425, 1726.077 787 C 1728.769 795.683, 1730.146 800.285, 1734.304 814.500 C 1736.235 821.100, 1740.168 834.150, 1743.044 843.500 C 1745.919 852.850, 1749.510 865, 1751.022 870.500 C 1752.535 876, 1756.723 890.175, 1760.330 902 C 1771.305 937.976, 1782.686 975.892, 1785.994 987.500 C 1787.718 993.550, 1791.096 1004.800, 1793.500 1012.500 C 1795.904 1020.200, 1799.043 1030.775, 1800.476 1036 C 1801.908 1041.225, 1804.128 1048.650, 1805.409 1052.500 C 1809.199 1063.894, 1809.347 1065, 1807.078 1065 C 1806 1065, 1804.878 1064.612, 1804.585 1064.137 C 1803.771 1062.820, 1765.710 1050.741, 1746 1045.545 C 1736.375 1043.007, 1724.450 1039.818, 1719.500 1038.458 C 1708.922 1035.553, 1662.766 1025.171, 1642 1021.027 C 1608.463 1014.334, 1551.226 1006.415, 1512 1003.041 C 1476.346 999.974, 1475 999.837, 1475 999.267 C 1475 998.975, 1476.013 997.114, 1477.250 995.132 C 1478.487 993.150, 1479.950 990.749, 1480.500 989.796 C 1481.050 988.843, 1485.937 981.187, 1491.361 972.782 C 1496.784 964.377, 1503.230 954.350, 1505.685 950.500 C 1519.423 928.954, 1527.122 916.787, 1530.681 911 C 1532.879 907.425, 1538.404 898.650, 1542.960 891.500 C 1547.515 884.350, 1556.611 869.950, 1563.173 859.500 C 1578.008 835.873, 1590.191 816.591, 1593.186 812 C 1594.441 810.075, 1599.415 802.200, 1604.240 794.500 C 1613.705 779.393, 1624.326 762.761, 1632.848 749.698 C 1635.790 745.189, 1639.371 739.475, 1640.806 737 C 1642.241 734.525, 1648.781 724.175, 1655.340 714 C 1661.898 703.825, 1668.443 693.564, 1669.882 691.198 C 1671.322 688.832, 1674.328 684.107, 1676.563 680.698 C 1678.798 677.289, 1682.761 670.900, 1685.370 666.500 C 1687.980 662.100, 1692.995 654, 1696.516 648.500 C 1700.037 643, 1706.340 633.100, 1710.523 626.500 C 1714.707 619.900, 1721.412 609.325, 1725.423 603 C 1731.847 592.872, 1745.368 571.469, 1761.116 546.500 C 1768.409 534.936, 1784.753 509.302, 1788.400 503.705 L 1791.526 498.911 1808.013 498.639 C 1822.206 498.406, 1825.474 498.041, 1831.500 496.019 C 1843.882 491.863, 1851.370 486.645, 1865.500 472.327 C 1872.650 465.082, 1889.773 447.752, 1903.552 433.817 C 1932.428 404.613, 1935 400.947, 1935 389 C 1935 383.597, 1934.434 381.186, 1932.039 376.393 C 1928.269 368.849, 1925.515 366.309, 1909 355.140 C 1888.816 341.491, 1890.384 343.706, 1895.319 335.817 C 1902.041 325.072, 1910.873 311.217, 1917.513 301 C 1924.822 289.752, 1926.236 285.917, 1926.187 277.461 C 1926.125 266.676, 1920.122 257.106, 1909.947 251.568 C 1905.618 249.212, 1903.409 248.685, 1897.588 248.621 C 1882.878 248.460, 1877.475 252.861, 1862.134 277.500 C 1850.241 296.599, 1841.149 310.450, 1840.323 310.726 C 1839.789 310.904, 1837.585 309.834, 1835.426 308.349 C 1825.476 301.505, 1805.257 289.877, 1801.578 288.882 C 1796.237 287.438, 1788.520 288.291, 1782.159 291.027 C 1774.124 294.483, 1770.181 299.625, 1764.158 314.500 C 1761.263 321.650, 1758.474 328.400, 1757.961 329.500 C 1757.448 330.600, 1754.964 336.900, 1752.441 343.500 C 1749.918 350.100, 1744.089 364.970, 1739.487 376.544 C 1734.886 388.119, 1730.194 400.935, 1729.060 405.024 C 1726.559 414.050, 1726.341 427.792, 1728.560 436.500 C 1729.402 439.800, 1730.546 444.297, 1731.105 446.493 C 1731.663 448.690, 1733.939 453.902, 1736.163 458.076 L 1740.206 465.665 1736.907 471.582 C 1735.092 474.837, 1730.853 481.775, 1727.485 487 C 1724.118 492.225, 1717.798 502.125, 1713.441 509 C 1709.084 515.875, 1704.165 523.623, 1702.510 526.218 C 1700.854 528.812, 1697.737 533.762, 1695.583 537.218 C 1693.428 540.673, 1687.992 549.125, 1683.503 556 C 1679.013 562.875, 1673.385 571.875, 1670.995 576 C 1668.605 580.125, 1664.319 587.100, 1661.469 591.500 C 1642.449 620.869, 1636 631.012, 1636 631.554 C 1636 631.895, 1634.716 634.047, 1633.146 636.337 C 1628.260 643.464, 1621.460 654.091, 1615.126 664.500 C 1608.732 675.008, 1594.764 697.077, 1587.680 707.865 C 1582.775 715.334, 1577.092 724.560, 1573.243 731.305 C 1571.734 733.947, 1568.630 738.719, 1566.345 741.908 C 1564.060 745.098, 1561.251 749.461, 1560.103 751.604 C 1558.955 753.747, 1556.099 758.524, 1553.758 762.219 C 1551.416 765.915, 1547.296 772.440, 1544.602 776.719 C 1540.151 783.790, 1534.310 792.839, 1522.474 811 C 1520.143 814.575, 1516.496 820.334, 1514.369 823.797 C 1512.241 827.260, 1507.800 834.333, 1504.500 839.515 C 1501.200 844.697, 1497.174 851.089, 1495.553 853.719 C 1493.932 856.348, 1489.854 862.775, 1486.490 868 C 1483.126 873.225, 1477.046 882.900, 1472.979 889.500 C 1468.912 896.100, 1464.597 902.850, 1463.390 904.500 C 1462.183 906.150, 1458.226 912.412, 1454.598 918.416 L 1448 929.332 1448 630.061 C 1448 361.598, 1447.839 330.166, 1446.433 324.742 C 1443.399 313.032, 1434.055 302.143, 1423.419 297.920 C 1418.625 296.017, 1415.595 295.564, 1407.479 295.535 C 1398.131 295.502, 1397.008 295.721, 1390.769 298.793 C 1379.118 304.529, 1371.059 315.923, 1368.973 329.610 C 1368.205 334.648, 1368.001 433.405, 1368.272 668.360 L 1368.655 1000 1361.578 1000.039 C 1357.685 1000.061, 1351.350 1000.282, 1347.500 1000.530 C 1343.650 1000.778, 1332.400 1001.460, 1322.500 1002.044 C 1294.973 1003.670, 1267.887 1006.601, 1230 1012.053 C 1199.905 1016.384, 1162.523 1022.595, 1160.983 1023.520 C 1160.698 1023.691, 1149.223 1026.331, 1135.483 1029.387 C 1111.035 1034.825, 1083.645 1041.545, 1074.226 1044.415 C 1071.627 1045.207, 1063.425 1047.512, 1056 1049.536 C 1048.575 1051.560, 1034.665 1055.870, 1025.089 1059.114 C 1015.513 1062.358, 1007.527 1064.860, 1007.342 1064.675 C 1007.156 1064.489, 1008.155 1060.549, 1009.561 1055.919 C 1010.967 1051.288, 1013.681 1042.123, 1015.593 1035.552 C 1017.504 1028.980, 1021.058 1017.505, 1023.491 1010.052 C 1025.923 1002.598, 1029.725 989.892, 1031.939 981.816 C 1034.154 973.739, 1037.283 962.939, 1038.892 957.816 C 1040.502 952.692, 1043.921 941.300, 1046.490 932.500 C 1049.060 923.700, 1053.667 908.625, 1056.728 899 C 1059.789 889.375, 1062.845 879.250, 1063.520 876.500 C 1064.195 873.750, 1068.142 860.250, 1072.292 846.500 C 1076.441 832.750, 1081.652 815.425, 1083.871 808 C 1086.090 800.575, 1089.686 788.650, 1091.861 781.500 C 1094.037 774.350, 1097.257 763.550, 1099.018 757.500 C 1100.778 751.450, 1104.151 740.200, 1106.512 732.500 C 1115.969 701.659, 1125.192 671.230, 1126.516 666.500 C 1128.656 658.860, 1133.857 641.534, 1137.023 631.500 C 1139.535 623.542, 1152.195 581.744, 1157.013 565.500 C 1157.992 562.200, 1160.461 553.875, 1162.500 547 C 1164.538 540.125, 1167.484 530.225, 1169.047 525 C 1170.609 519.775, 1173.685 509.425, 1175.882 502 C 1178.079 494.575, 1181.185 484.450, 1182.783 479.500 C 1185.707 470.446, 1187.239 465.368, 1197.569 430.500 C 1206.074 401.790, 1209.407 390.893, 1214.542 375 C 1217.119 367.025, 1220.544 356, 1222.154 350.500 C 1225.095 340.446, 1233.372 313.088, 1241.061 288 C 1243.337 280.575, 1245.809 272.475, 1246.554 270 C 1247.298 267.525, 1248.877 262.350, 1250.062 258.500 C 1251.246 254.650, 1253.441 247.158, 1254.939 241.851 C 1259.686 225.032, 1268.625 214.332, 1280.632 211.099 C 1283.269 210.389, 1324.817 210.026, 1408.023 209.987 C 1549.066 209.920, 1537.802 209.219, 1548.049 218.706 C 1554.812 224.967, 1558.011 230.458, 1560.840 240.661 C 1562.606 247.028, 1568.722 267.088, 1583.048 313.500 C 1586.274 323.950, 1590.711 338.575, 1592.909 346 C 1595.106 353.425, 1599.655 368.500, 1603.016 379.500 C 1606.377 390.500, 1609.557 401.075, 1610.082 403 C 1610.608 404.925, 1612.636 411.450, 1614.591 417.500 C 1618.664 430.108, 1631.467 472.920, 1640.155 502.988 C 1643.411 514.256, 1646.437 523.837, 1646.880 524.280 C 1647.947 525.347, 1648.596 524.495, 1658.775 508.670 C 1667.483 495.131, 1671.519 488.743, 1682.436 471.219 C 1688.823 460.967, 1688.695 462.135, 1684.925 448.500 C 1681.863 437.428, 1681.603 410.245, 1684.419 395.750 C 1685.461 390.387, 1686.693 386, 1687.157 386 C 1689.369 386, 1687.547 376.131, 1682.449 360.500 C 1679.400 351.150, 1675.343 337.875, 1673.433 331 C 1669.340 316.261, 1647.672 245.868, 1636.804 212 C 1626.624 180.276, 1605.086 154.329, 1577.071 140.036 C 1571.425 137.156, 1558.093 132.462, 1548 129.801 C 1539.500 127.560, 1539.500 127.560, 1409.445 127.252 C 1337.915 127.082, 1279.137 127.196, 1278.828 127.506 M 1357.081 1068.071 C 1297.660 1070.632, 1219.670 1080.098, 1172.460 1090.480 C 1166.157 1091.866, 1155.713 1094.133, 1149.250 1095.519 C 1103.357 1105.356, 1053.691 1119.801, 1004.231 1137.696 L 982.961 1145.391 981.563 1149.946 C 977.320 1163.760, 973.093 1177.982, 966.984 1199 C 949.677 1258.540, 945.655 1272.238, 942.452 1282.542 C 940.564 1288.615, 938.740 1295.618, 938.399 1298.103 C 937.665 1303.464, 939.447 1312.955, 942.209 1318.392 C 945.277 1324.432, 952.685 1331.698, 958.875 1334.738 L 964.500 1337.500 1406.479 1337.754 C 1806.476 1337.985, 1848.982 1337.859, 1853.979 1336.432 C 1858.549 1335.126, 1860.603 1333.710, 1865.902 1328.216 C 1877.479 1316.211, 1880.345 1304.761, 1875.716 1289 C 1874.343 1284.325, 1870.230 1270.150, 1866.575 1257.500 C 1862.921 1244.850, 1857.209 1225.500, 1853.883 1214.500 C 1850.557 1203.500, 1846.246 1189.100, 1844.303 1182.500 C 1842.361 1175.900, 1839.248 1165.588, 1837.386 1159.585 C 1835.524 1153.582, 1834 1148.085, 1834 1147.370 C 1834 1145.258, 1832.228 1144.552, 1790.500 1130.038 C 1771.771 1123.524, 1742.136 1114.249, 1728 1110.477 C 1720.575 1108.496, 1712.025 1106.178, 1709 1105.325 C 1696.227 1101.725, 1660.369 1093.838, 1623.135 1086.438 C 1608.087 1083.447, 1584.039 1079.752, 1555.500 1076.046 C 1538.916 1073.892, 1508.019 1070.883, 1487.138 1069.387 C 1462.818 1067.644, 1385.201 1066.859, 1357.081 1068.071" stroke="none" fill="#fffeff" fill-rule="evenodd"/></svg>