<svg xmlns="http://www.w3.org/2000/svg" width="229" height="229" viewBox="0 0 229 229" version="1.1"><path d="M 110.882 32.006 C 109.805 32.635, 109.034 35.052, 108.578 39.226 C 107.105 52.695, 102.122 69.961, 96.574 80.813 C 91.383 90.967, 79.838 100.519, 66.861 105.397 C 60.206 107.899, 45.383 111.323, 36 112.525 C 29.285 113.386, 27 114.500, 27 116.913 C 27 119.732, 28.845 120.666, 37 121.975 C 70.771 127.399, 89.145 137.951, 98.414 157.245 C 102.320 165.376, 107.317 183.321, 108.509 193.500 C 109.242 199.755, 111.175 204.011, 113.273 203.985 C 116.161 203.949, 117.178 201.802, 118.520 192.910 C 121.908 170.462, 128.551 153.913, 138.478 143.195 C 143.101 138.204, 146.211 135.972, 153.408 132.480 C 162.805 127.921, 178.842 123.425, 189.500 122.361 C 196.357 121.676, 200 119.821, 200 117.012 C 200 114.448, 197.753 113.395, 190.500 112.560 C 182.488 111.638, 165.998 107.483, 158.775 104.565 C 139.863 96.926, 130.757 86.555, 123.596 64.500 C 120.920 56.257, 118.051 41.829, 118.018 36.450 C 117.989 31.644, 114.849 29.689, 110.882 32.006" stroke="none" fill="#000000" fill-rule="evenodd"/></svg>